<svg xmlns="http://www.w3.org/2000/svg" viewBox="0 0 100 100">
  <defs>
    <style type="text/css">
      .fill {
        fill: #ffffff;
      }
    </style>
  </defs>
  <polygon class="fill" points="10 0 0 0 0 10 0 20 10 20 10 10 20 10 20 0 10 0"/>
  <polygon class="fill" points="100 10 100 0 90 0 80 0 80 10 90 10 90 20 100 20 100 10"/>
  <polygon class="fill" points="90 100 100 100 100 90 100 80 90 80 90 90 80 90 80 100 90 100"/>
  <polygon class="fill" points="0 90 0 100 10 100 20 100 20 90 10 90 10 80 0 80 0 90"/>
  <rect class="fill" y="45" width="10" height="10"/>
  <rect class="fill" x="90" y="45" width="10" height="10"/>
  <rect class="fill" x="45" width="10" height="10"/>
  <rect class="fill" x="45" y="90" width="10" height="10"/>
</svg>
