<svg xmlns="http://www.w3.org/2000/svg" xmlns:xlink="http://www.w3.org/1999/xlink" viewBox="0 0 100 90">
  <defs>
    <style>
      .cls-1 {
        fill: none;
      }

      .cls-2 {
        fill: url(#New_Gradient_Swatch_2);
      }

      .cls-3 {
        clip-path: url(#clip-path);
      }

      .cls-4 {
        fill: url(#Gradient_Swatch);
      }

      .cls-5 {
        fill: #fff;
      }
    </style>
    <linearGradient id="New_Gradient_Swatch_2" data-name="New Gradient Swatch 2" x1="50" x2="50" y2="80" gradientUnits="userSpaceOnUse">
      <stop offset="0" stop-color="#7fbf1f"/>
      <stop offset="1" stop-color="#007f3f"/>
    </linearGradient>
    <clipPath id="clip-path" transform="translate(0 -5)">
      <polygon class="cls-1" points="50 5 5 95 95 95 50 5"/>
    </clipPath>
    <linearGradient id="Gradient_Swatch" data-name="Gradient Swatch" x1="50" x2="50" y2="90" gradientUnits="userSpaceOnUse">
      <stop offset="0" stop-color="#7fbf1f"/>
      <stop offset="1" stop-color="#7fbf1f"/>
    </linearGradient>
    <symbol id="Hexagon" data-name="Hexagon" viewBox="0 0 100 80">
      <polygon class="cls-2" points="75 0 25 0 0 40 25 80 75 80 100 40 75 0"/>
    </symbol>
  </defs>
  <title>-logo</title>
  <g id="logo">
    <use width="100" height="80" transform="scale(1 1.13)" xlink:href="#Hexagon"/>
    <g class="cls-3">
      <polygon class="cls-4" points="75 0 25 0 0 45 25 90 75 90 100 45 75 0"/>
    </g>
    <rect class="cls-5" x="37.5" y="25" width="25" height="65"/>
    <polygon class="cls-5" points="50 0 25 50 75 50 50 0"/>
  </g>
</svg>
